<?xml version="1.0" encoding="UTF-8" standalone="no"?>
<!DOCTYPE svg PUBLIC "-//W3C//DTD SVG 1.1//EN" "http://www.w3.org/Graphics/SVG/1.1/DTD/svg11.dtd">
<svg width="100%" height="100%" viewBox="0 0 1507 1522" version="1.1" style="fill-rule:evenodd;clip-rule:evenodd;stroke-linejoin:round;stroke-miterlimit:1.41421;">
	<g transform="matrix(1,0,0,1,-2545.19,-74.8166)">
		<g transform="matrix(4.16667,0,0,4.16667,0,0)">
			<g transform="matrix(-1,0,-0,1,1583.25,0)">
				<path d="M610.845,17.956L610.845,59.876C695.379,61.707 774.612,95.98 834.645,156.862C894.453,217.518 928.287,297.537 930.483,383.031L972.408,383.031C967.807,182.97 808.32,21.764 610.845,17.956Z" style="fill:rgb(255,0,0);fill-rule:nonzero;" />
			</g>
		</g>
		<g transform="matrix(4.16667,0,0,4.16667,0,0)">
			<g transform="matrix(-1,0,-0,1,1583.25,0)">
				<path d="M834.645,156.862C774.612,95.98 695.379,61.707 610.845,59.876L610.845,101.796C684.073,103.621 752.708,133.461 804.799,186.29C856.828,239.056 886.37,308.626 888.551,383.031L930.483,383.031C928.287,297.537 894.453,217.518 834.645,156.862Z" style="fill:rgb(255,128,0);fill-rule:nonzero;" />
			</g>
		</g>
		<g transform="matrix(4.16667,0,0,4.16667,0,0)">
			<g transform="matrix(-1,0,-0,1,1583.25,0)">
				<path d="M804.799,186.29C752.708,133.461 684.073,103.621 610.845,101.796L610.845,143.736C672.766,145.554 730.806,170.944 774.954,215.718C819.203,260.593 844.439,319.717 846.603,383.031L888.551,383.031C886.37,308.626 856.828,239.056 804.799,186.29Z" style="fill:rgb(255,255,0);fill-rule:nonzero;" />
			</g>
		</g>
		<g transform="matrix(4.16667,0,0,4.16667,0,0)">
			<g transform="matrix(-1,0,-0,1,1583.25,0)">
				<path d="M774.954,215.718C730.806,170.944 672.766,145.554 610.845,143.736L610.845,185.676C661.461,187.483 708.905,208.429 745.11,245.146C781.578,282.132 802.526,330.809 804.665,383.031L846.603,383.031C844.439,319.717 819.203,260.593 774.954,215.718Z" style="fill:rgb(0,255,0);fill-rule:nonzero;" />
			</g>
		</g>
		<g transform="matrix(4.16667,0,0,4.16667,0,0)">
			<g transform="matrix(-1,0,-0,1,1583.25,0)">
				<path d="M745.11,245.146C708.905,208.429 661.461,187.483 610.845,185.676L610.845,227.617C650.158,229.406 687.005,245.915 715.264,274.574C743.954,303.672 760.612,341.903 762.713,383.031L804.665,383.031C802.526,330.809 781.578,282.132 745.11,245.146Z" style="fill:rgb(0,0,255);fill-rule:nonzero;" />
			</g>
		</g>
		<g transform="matrix(4.16667,0,0,4.16667,0,0)">
			<g transform="matrix(-1,0,-0,1,1583.25,0)">
				<path d="M715.264,274.574C687.005,245.915 650.158,229.406 610.845,227.617L610.845,269.594C638.856,271.352 665.111,283.407 685.419,304.003C706.334,325.215 718.688,353.007 720.727,383.031L762.713,383.031C760.612,341.903 743.954,303.672 715.264,274.574Z" style="fill:rgb(111, 43, 208);fill-rule:nonzero;" />
			</g>
		</g>
	</g>
</svg>
